<?xml version="1.0" encoding="utf-8"?>
<!-- Generator: Adobe Illustrator 27.9.1, SVG Export Plug-In . SVG Version: 6.00 Build 0)  -->
<svg version="1.1" id="Layer_1" xmlns="http://www.w3.org/2000/svg" xmlns:xlink="http://www.w3.org/1999/xlink" x="0px" y="0px"
	 viewBox="0 0 400 400" style="enable-background:new 0 0 400 400;" xml:space="preserve">
<g>
	<polygon class="st0" points="170.31,81.75 66.46,81.75 66.46,116.08 155.66,116.08 176.22,137.53 200,112.72 	"/>
	<polygon class="st0" points="229.69,318.25 333.54,318.25 333.54,283.92 244.34,283.92 223.78,262.47 200,287.28 	"/>
	<polygon class="st0" points="176.22,262.47 200,287.28 223.78,262.47 200,237.66 	"/>
	<polygon class="st0" points="176.22,137.53 200,162.34 223.78,137.53 200,112.72 	"/>
	<polygon class="st0" points="235.67,149.94 211.89,174.74 236.1,200 200,237.66 223.78,262.47 283.66,200 	"/>
	<g>
		<polygon class="st0" points="277.25,81.75 229.69,81.75 200,112.72 223.78,137.53 236.94,123.8 		"/>
		<rect x="291.6" y="81.75" class="st0" width="41.93" height="34.33"/>
	</g>
	<polygon class="st0" points="188.11,225.26 163.9,200 200,162.34 176.22,137.53 116.34,200 164.33,250.07 	"/>
	<g>
		<rect x="66.46" y="283.92" class="st0" width="44.89" height="34.33"/>
		<polygon class="st0" points="176.22,262.47 155.66,283.92 155.66,283.92 122.75,318.25 170.31,318.25 200,287.28 		"/>
	</g>
</g>
</svg>
